<svg width="169" height="63" viewBox="0 0 169 63" fill="none" xmlns="http://www.w3.org/2000/svg">
<path d="M7 43H0L1.74846e-07 41H7V43Z" fill="#6F6064"/>
<path d="M52 43H45V41H52V43Z" fill="#6F6064"/>
<path d="M16 43H9V41H16V43Z" fill="#6F6064"/>
<path d="M34 43H27V41H34V43Z" fill="#6F6064"/>
<path d="M43 43H36V41H43V43Z" fill="#6F6064"/>
<path d="M25 43H18V41H25V43Z" fill="#6F6064"/>
<path d="M7 38H0L1.74846e-07 36H7V38Z" fill="#6F6064"/>
<path d="M52 38H45V36H52V38Z" fill="#6F6064"/>
<path d="M16 38H9V36H16V38Z" fill="#6F6064"/>
<path d="M34 38H27V36H34V38Z" fill="#6F6064"/>
<path d="M43 38H36V36H43V38Z" fill="#6F6064"/>
<path d="M25 38H18V36H25V38Z" fill="#6F6064"/>
<path d="M7 33H0L1.74846e-07 31L7 31V33Z" fill="#6F6064"/>
<path d="M52 33H45V31L52 31V33Z" fill="#6F6064"/>
<path d="M16 33H9V31L16 31V33Z" fill="#6F6064"/>
<path d="M34 33H27V31L34 31V33Z" fill="#6F6064"/>
<path d="M43 33H36V31L43 31V33Z" fill="#6F6064"/>
<path d="M7 28L0 28L1.74846e-07 26L7 26V28Z" fill="#6F6064"/>
<path d="M52 28L45 28V26L52 26V28Z" fill="#6F6064"/>
<path d="M16 28L9 28V26L16 26V28Z" fill="#6F6064"/>
<path d="M34 28L27 28V26L34 26V28Z" fill="#6F6064"/>
<path d="M43 28L36 28V26L43 26V28Z" fill="#6F6064"/>
<path d="M7 23L0 23L1.74846e-07 21L7 21V23Z" fill="#6F6064"/>
<path d="M52 23L45 23V21L52 21V23Z" fill="#6F6064"/>
<path d="M16 23L9 23V21L16 21V23Z" fill="#6F6064"/>
<path d="M34 23L27 23V21L34 21V23Z" fill="#6F6064"/>
<path d="M7 18L0 18L1.74846e-07 16L7 16V18Z" fill="#6F6064"/>
<path d="M52 18L45 18V16L52 16V18Z" fill="#6F6064"/>
<path d="M74.1875 48.4688C71.8333 48.4688 69.875 48.1979 68.3125 47.6562C66.7708 47.0938 65.5521 46.2083 64.6562 45C63.7604 43.7917 63.1354 42.3542 62.7812 40.6875C62.4271 39.0208 62.25 36.9479 62.25 34.4688V1L70.4375 0.46875V34.3125C70.4375 37.3958 70.8021 39.4896 71.5312 40.5938C72.2604 41.6771 73.6771 42.2188 75.7812 42.2188C76.8229 42.2188 78.1458 42.1042 79.75 41.875L79.9688 47.7188C79.9479 47.7188 79.6875 47.7708 79.1875 47.875C78.7083 47.9792 78.2396 48.0625 77.7812 48.125C77.3438 48.2083 76.7812 48.2812 76.0938 48.3438C75.4062 48.4271 74.7708 48.4688 74.1875 48.4688Z" fill="black"/>
<path d="M85.8438 62.4688C84.5104 62.4688 83.0938 62.3854 81.5938 62.2188L81.1875 55.875C82.1458 55.9792 83.3646 56.0312 84.8438 56.0312C86.7396 56.0312 88.2604 55.6562 89.4062 54.9062C90.5521 54.1562 91.5 52.8229 92.25 50.9062C92.3333 50.6979 92.75 49.5208 93.5 47.375L79.6875 13.6562H88.4375L97.4688 38.5625C98.1354 36.0833 99.625 31.4792 101.938 24.75C104.271 18.0208 105.552 14.3229 105.781 13.6562H114.531C105.01 38.8229 100.208 51.5104 100.125 51.7188C98.6458 55.5729 96.7812 58.3229 94.5312 59.9688C92.2812 61.6354 89.3854 62.4688 85.8438 62.4688Z" fill="black"/>
<path d="M118.938 48V13.6562H125.812L126.875 18.9062C129.125 15.3021 132.385 13.5 136.656 13.5C137.552 13.5 138.281 13.5417 138.844 13.625L138.719 20.4688C137.885 20.3438 137.021 20.2812 136.125 20.2812C133.104 20.2812 130.844 21.0833 129.344 22.6875C127.865 24.2917 127.125 26.5208 127.125 29.375V48H118.938Z" fill="black"/>
<path d="M158.562 48.6562C153.312 48.6562 149.219 47.0938 146.281 43.9688C143.365 40.8438 141.906 36.375 141.906 30.5625C141.906 24.9375 143.438 20.5729 146.5 17.4688C149.583 14.3646 153.635 12.8125 158.656 12.8125C162.677 12.8125 166.073 13.6771 168.844 15.4062L166.906 21.25C164.073 19.7708 161.438 19.0312 159 19.0312C156.229 19.0312 154.042 20.0208 152.438 22C150.854 23.9792 150.062 26.8646 150.062 30.6562C150.062 34.4896 150.844 37.4062 152.406 39.4062C153.99 41.4062 156.219 42.4062 159.094 42.4062C162.094 42.4062 164.979 41.5208 167.75 39.75L168.531 45.9688C167.094 46.9271 165.604 47.6146 164.062 48.0312C162.521 48.4479 160.688 48.6562 158.562 48.6562Z" fill="black"/>
</svg>
