<svg width="52" height="27" viewBox="0 0 52 27" fill="none" xmlns="http://www.w3.org/2000/svg">
<path d="M7 27H0L1.74846e-07 25H7V27Z" fill="#6F6064"/>
<path d="M52 27H45V25H52V27Z" fill="#6F6064"/>
<path d="M16 27H9V25H16V27Z" fill="#6F6064"/>
<path d="M34 27H27V25H34V27Z" fill="#6F6064"/>
<path d="M43 27H36V25H43V27Z" fill="#6F6064"/>
<path d="M25 27H18V25H25V27Z" fill="#6F6064"/>
<path d="M7 22H0L1.74846e-07 20H7V22Z" fill="#6F6064"/>
<path d="M52 22H45V20H52V22Z" fill="#6F6064"/>
<path d="M16 22H9V20H16V22Z" fill="#6F6064"/>
<path d="M34 22H27V20H34V22Z" fill="#6F6064"/>
<path d="M43 22H36V20H43V22Z" fill="#6F6064"/>
<path d="M25 22H18V20H25V22Z" fill="#6F6064"/>
<path d="M7 17H0L1.74846e-07 15L7 15V17Z" fill="#6F6064"/>
<path d="M52 17H45V15L52 15V17Z" fill="#6F6064"/>
<path d="M16 17H9V15L16 15V17Z" fill="#6F6064"/>
<path d="M34 17H27V15L34 15V17Z" fill="#6F6064"/>
<path d="M43 17H36V15L43 15V17Z" fill="#6F6064"/>
<path d="M7 12L0 12L1.74846e-07 10L7 10V12Z" fill="#6F6064"/>
<path d="M52 12L45 12V10L52 10V12Z" fill="#6F6064"/>
<path d="M16 12L9 12V10L16 10V12Z" fill="#6F6064"/>
<path d="M34 12L27 12V10L34 10V12Z" fill="#6F6064"/>
<path d="M43 12L36 12V10L43 10V12Z" fill="#6F6064"/>
<path d="M7 7L0 7L1.74846e-07 5L7 5V7Z" fill="#6F6064"/>
<path d="M52 7L45 7V5L52 5V7Z" fill="#6F6064"/>
<path d="M16 7L9 7V5L16 5V7Z" fill="#6F6064"/>
<path d="M34 7L27 7V5L34 5V7Z" fill="#6F6064"/>
<path d="M7 2L0 2L1.74846e-07 0L7 6.11959e-07V2Z" fill="#6F6064"/>
<path d="M52 2L45 2V0L52 6.11959e-07V2Z" fill="#6F6064"/>
</svg>
